# xmcd
#
# Track frame offsets: 
#        150
#        11154
#        23439
#        36437
#        50893
#        62499
#        78430
#        92122
#        104110
#        121349
#        132284
#        142263
#        152301
#        167080
#        178642
#
# Disc length: 2617 seconds
#
# Revision: 1
# Processed by: cddbd v1.5.1PL2 Copyright (c) Steve Scherf et al.
# Submitted via: ExactAudioCopy v0.95b3
#
DISCID=cc0a370f
DTITLE=Various Artist - All That Lounge, Disc 2
DYEAR=2004
DGENRE=Jazz
TTITLE0=Les Baxter Orchestra - A Taste Of Honey
TTITLE1=Mel Torme - Comin' Home Baby
TTITLE2=Sergio Mendes - My Favourite Things
TTITLE3=Nat King Cole - Too Young
TTITLE4=Ada Lee - Night In Tunisia
TTITLE5=Harold Betters - Papa-Ooh-MauMau
TTITLE6=Carmen McRae - The Sound Of Silence
TTITLE7=Esquivel - The Breeze And I (Andalucia)
TTITLE8=Ella Fitzgerald - Mas Que Nada
TTITLE9=Sammy Davis Jr. - Someone Nice Like You
TTITLE10=Antonio Carlos Jobim - The Face I Love (Seu Encanto)
TTITLE11=Barney Kessel - Summertime
TTITLE12=Aretha Franklin - Son Of A Preacher Man
TTITLE13=The Drifters - Mexican Divorce
TTITLE14=Chris Connor - Poor Little Rich Girl
EXTD=
EXTT0=
EXTT1=
EXTT2=
EXTT3=
EXTT4=
EXTT5=
EXTT6=
EXTT7=
EXTT8=
EXTT9=
EXTT10=
EXTT11=
EXTT12=
EXTT13=
EXTT14=
PLAYORDER=
